<?xml version="1.0" standalone="no"?><!DOCTYPE svg PUBLIC "-//W3C//DTD SVG 1.1//EN" "http://www.w3.org/Graphics/SVG/1.1/DTD/svg11.dtd"><svg t="1616352118037" class="icon" viewBox="0 0 1133 1024" version="1.1" xmlns="http://www.w3.org/2000/svg" p-id="3863" width="35.40625" height="32" xmlns:xlink="http://www.w3.org/1999/xlink"><defs><style type="text/css"></style></defs><path d="M330.252646 323.026112c0-5.781228-5.058574-10.839802-10.839802-10.839803H246.424841c-5.781228 0-10.839802 5.058574-10.839802 10.839803v147.421312c0 5.781228 3.613267 7.226535 7.949188 3.613268l78.046578-80.214538c4.335921-3.613267 7.949188-12.285109 7.949188-18.066337v-52.753705z" fill="#BF618C" p-id="3864"></path><path d="M547.771348 234.862385c-7.226535-6.503881-18.788991-6.503881-25.292872 0l-339.647142 347.596331c-7.226535 6.503881-5.058574 11.562456 4.335921 11.562455h696.637967c9.394495 0 11.562456-5.058574 4.335921-11.562455L547.771348 234.862385z" fill="#595959" p-id="3865"></path><path d="M269.549753 592.575865v265.213832c0 7.949188 6.503881 14.45307 14.45307 14.453069h46.972477c7.949188 0 14.45307-6.503881 14.45307-14.453069v-127.187015c0-7.949188 6.503881-14.45307 14.45307-14.45307h87.441072c7.949188 0 14.45307 6.503881 14.45307 14.45307v127.187015c0 7.949188 6.503881 14.45307 14.45307 14.453069h307.850388c7.949188 0 14.45307-6.503881 14.45307-14.453069V592.575865H269.549753z m469.002117 156.815808c0 7.949188-6.503881 14.45307-14.45307 14.453069H595.466478c-7.949188 0-15.175723-6.503881-15.175723-14.453069V659.782639c0-7.949188 6.503881-14.45307 15.175723-14.453069h128.632322c7.949188 0 14.45307 6.503881 14.45307 14.453069v89.609034z" fill="#595959" p-id="3866"></path></svg>